<svg width="729" height="449" viewBox="0 0 729 449" fill="none" xmlns="http://www.w3.org/2000/svg">
<path d="M257.128 318.569H200.13V451.868H257.128V318.569Z" fill="#333333"/>
<path d="M226.038 311.844H200.13V319.431H226.038V311.844Z" fill="#333333"/>
<path d="M215.157 307.532H200.13V311.844H215.157V307.532Z" fill="#333333"/>
<path opacity="0.06" d="M233.293 327.881H223.966V334.779H233.293V327.881Z" fill="white"/>
<path opacity="0.12" d="M233.293 344.953H223.966V351.851H233.293V344.953Z" fill="white"/>
<path opacity="0.19" d="M233.293 379.097H223.966V385.995H233.293V379.097Z" fill="white"/>
<path opacity="0.14" d="M233.293 413.241H223.966V420.139H233.293V413.241Z" fill="white"/>
<path opacity="0.1" d="M233.293 430.313H223.966V437.211H233.293V430.313Z" fill="white"/>
<path d="M114.116 333.054H36.0461V404.445H114.116V333.054Z" fill="#333333"/>
<path d="M101.853 326.673H48.482V357.368H101.853V326.673Z" fill="#333333"/>
<path d="M119.815 378.061H41.7458V449.453H119.815V378.061Z" fill="#333333"/>
<path d="M107.38 371.681H54.009V402.376H107.38V371.681Z" fill="#333333"/>
<path d="M223.793 368.577H145.724V450.833H223.793V368.577Z" fill="#333333"/>
<path d="M211.53 361.334H158.159V396.858H211.53V361.334Z" fill="#333333"/>
<path d="M485.119 393.582H407.049V473.079H485.119V393.582Z" fill="#333333"/>
<path d="M472.856 386.512H419.485V420.828H472.856V386.512Z" fill="#333333"/>
<path d="M315.853 229.415H228.629V450.661H315.853V229.415Z" fill="#333333"/>
<path opacity="0.46" d="M254.019 239.417H232.947V243.383H254.019V239.417Z" fill="#E6E6E6"/>
<path opacity="0.34" d="M282.863 239.417H261.792V243.383H282.863V239.417Z" fill="#E6E6E6"/>
<path opacity="0.52" d="M311.535 239.417H290.463V243.383H311.535V239.417Z" fill="#E6E6E6"/>
<path opacity="0.54" d="M254.019 248.556H232.947V252.523H254.019V248.556Z" fill="#E6E6E6"/>
<path opacity="0.3" d="M282.863 248.556H261.792V252.523H282.863V248.556Z" fill="#E6E6E6"/>
<path opacity="0.06" d="M311.535 248.556H290.463V252.523H311.535V248.556Z" fill="#E6E6E6"/>
<path opacity="0.15" d="M254.019 257.696H232.947V261.662H254.019V257.696Z" fill="#E6E6E6"/>
<path opacity="0.42" d="M282.863 257.696H261.792V261.662H282.863V257.696Z" fill="#E6E6E6"/>
<path opacity="0.48" d="M311.535 257.696H290.463V261.662H311.535V257.696Z" fill="#E6E6E6"/>
<path opacity="0.18" d="M254.019 266.835H232.947V270.802H254.019V266.835Z" fill="#E6E6E6"/>
<path opacity="0.28" d="M311.535 266.835H290.463V270.802H311.535V266.835Z" fill="#E6E6E6"/>
<path opacity="0.29" d="M254.019 275.975H232.947V279.941H254.019V275.975Z" fill="#E6E6E6"/>
<path opacity="0.28" d="M282.863 275.975H261.792V279.941H282.863V275.975Z" fill="#E6E6E6"/>
<path opacity="0.56" d="M311.535 275.975H290.463V279.941H311.535V275.975Z" fill="#E6E6E6"/>
<path opacity="0.41" d="M254.019 285.115H232.947V289.081H254.019V285.115Z" fill="#E6E6E6"/>
<path opacity="0.16" d="M282.863 285.115H261.792V289.081H282.863V285.115Z" fill="#E6E6E6"/>
<path opacity="0.4" d="M311.535 285.115H290.463V289.081H311.535V285.115Z" fill="#E6E6E6"/>
<path opacity="0.1" d="M254.019 294.254H232.947V298.221H254.019V294.254Z" fill="#E6E6E6"/>
<path opacity="0.17" d="M282.863 294.254H261.792V298.221H282.863V294.254Z" fill="#E6E6E6"/>
<path opacity="0.08" d="M311.535 294.254H290.463V298.221H311.535V294.254Z" fill="#E6E6E6"/>
<path opacity="0.49" d="M254.019 303.394H232.947V307.36H254.019V303.394Z" fill="#E6E6E6"/>
<path opacity="0.58" d="M282.863 303.394H261.792V307.36H282.863V303.394Z" fill="#E6E6E6"/>
<path opacity="0.58" d="M311.535 303.394H290.463V307.36H311.535V303.394Z" fill="#E6E6E6"/>
<path opacity="0.26" d="M254.019 312.533H232.947V316.5H254.019V312.533Z" fill="#E6E6E6"/>
<path opacity="0.37" d="M282.863 312.533H261.792V316.5H282.863V312.533Z" fill="#E6E6E6"/>
<path opacity="0.34" d="M311.535 312.533H290.463V316.5H311.535V312.533Z" fill="#E6E6E6"/>
<path opacity="0.55" d="M254.019 321.673H232.947V325.639H254.019V321.673Z" fill="#E6E6E6"/>
<path opacity="0.12" d="M282.863 321.673H261.792V325.639H282.863V321.673Z" fill="#E6E6E6"/>
<path opacity="0.6" d="M311.535 321.673H290.463V325.639H311.535V321.673Z" fill="#E6E6E6"/>
<path opacity="0.02" d="M254.019 330.812H232.947V334.779H254.019V330.812Z" fill="#E6E6E6"/>
<path opacity="0.28" d="M282.863 330.812H261.792V334.779H282.863V330.812Z" fill="#E6E6E6"/>
<path opacity="0.21" d="M311.535 330.812H290.463V334.779H311.535V330.812Z" fill="#E6E6E6"/>
<path opacity="0.57" d="M254.019 339.952H232.947V343.918H254.019V339.952Z" fill="#E6E6E6"/>
<path opacity="0.38" d="M282.863 339.952H261.792V343.918H282.863V339.952Z" fill="#E6E6E6"/>
<path opacity="0.25" d="M311.535 339.952H290.463V343.918H311.535V339.952Z" fill="#E6E6E6"/>
<path opacity="0.15" d="M254.019 349.091H232.947V353.058H254.019V349.091Z" fill="#E6E6E6"/>
<path opacity="0.47" d="M282.863 349.091H261.792V353.058H282.863V349.091Z" fill="#E6E6E6"/>
<path opacity="0.3" d="M311.535 349.091H290.463V353.058H311.535V349.091Z" fill="#E6E6E6"/>
<path opacity="0.4" d="M254.019 358.231H232.947V362.197H254.019V358.231Z" fill="#E6E6E6"/>
<path opacity="0.39" d="M282.863 358.231H261.792V362.197H282.863V358.231Z" fill="#E6E6E6"/>
<path opacity="0.24" d="M311.535 358.231H290.463V362.197H311.535V358.231Z" fill="#E6E6E6"/>
<path opacity="0.46" d="M254.019 367.37H232.947V371.337H254.019V367.37Z" fill="#E6E6E6"/>
<path opacity="0.22" d="M282.863 367.37H261.792V371.337H282.863V367.37Z" fill="#E6E6E6"/>
<path opacity="0.11" d="M311.535 367.37H290.463V371.337H311.535V367.37Z" fill="#E6E6E6"/>
<path opacity="0.11" d="M282.863 376.51H261.792V380.476H282.863V376.51Z" fill="#E6E6E6"/>
<path opacity="0.02" d="M311.535 376.51H290.463V380.476H311.535V376.51Z" fill="#E6E6E6"/>
<path opacity="0.27" d="M254.019 385.65H232.947V389.616H254.019V385.65Z" fill="#E6E6E6"/>
<path opacity="0.21" d="M282.863 385.65H261.792V389.616H282.863V385.65Z" fill="#E6E6E6"/>
<path opacity="0.49" d="M311.535 385.65H290.463V389.616H311.535V385.65Z" fill="#E6E6E6"/>
<path opacity="0.6" d="M254.019 394.789H232.947V398.756H254.019V394.789Z" fill="#E6E6E6"/>
<path opacity="0.31" d="M282.863 394.789H261.792V398.756H282.863V394.789Z" fill="#E6E6E6"/>
<path opacity="0.22" d="M311.535 394.789H290.463V398.756H311.535V394.789Z" fill="#E6E6E6"/>
<path opacity="0.54" d="M254.019 403.929H232.947V407.895H254.019V403.929Z" fill="#E6E6E6"/>
<path opacity="0.6" d="M282.863 403.929H261.792V407.895H282.863V403.929Z" fill="#E6E6E6"/>
<path opacity="0.08" d="M311.535 403.929H290.463V407.895H311.535V403.929Z" fill="#E6E6E6"/>
<path opacity="0.55" d="M282.863 413.068H261.792V417.035H282.863V413.068Z" fill="#E6E6E6"/>
<path d="M311.535 413.068H290.463V417.035H311.535V413.068Z" fill="#E6E6E6"/>
<path opacity="0.6" d="M255.401 239.417H254.019V417.035H255.401V239.417Z" fill="#E6E6E6"/>
<path opacity="0.6" d="M290.463 239.417H289.081V417.035H290.463V239.417Z" fill="#E6E6E6"/>
<path d="M359.378 229.415H315.853V450.661H359.378V229.415Z" fill="#4D4D4D"/>
<path opacity="0.69" d="M352.988 239.417H320.171V243.383H352.988V239.417Z" fill="#E6E6E6"/>
<path opacity="0.79" d="M352.988 248.556H320.171V252.523H352.988V248.556Z" fill="#E6E6E6"/>
<path opacity="0.19" d="M352.988 257.696H320.171V261.662H352.988V257.696Z" fill="#E6E6E6"/>
<path opacity="0.88" d="M352.988 266.835H320.171V270.802H352.988V266.835Z" fill="#E6E6E6"/>
<path opacity="0.5" d="M352.988 275.975H320.171V279.941H352.988V275.975Z" fill="#E6E6E6"/>
<path opacity="0.25" d="M352.988 285.115H320.171V289.081H352.988V285.115Z" fill="#E6E6E6"/>
<path opacity="0.91" d="M352.988 294.254H320.171V298.221H352.988V294.254Z" fill="#E6E6E6"/>
<path opacity="0.02" d="M352.988 303.394H320.171V307.36H352.988V303.394Z" fill="#E6E6E6"/>
<path opacity="0.53" d="M352.988 312.533H320.171V316.5H352.988V312.533Z" fill="#E6E6E6"/>
<path opacity="0.65" d="M352.988 321.673H320.171V325.639H352.988V321.673Z" fill="#E6E6E6"/>
<path d="M352.988 330.812H320.171V334.779H352.988V330.812Z" fill="#E6E6E6"/>
<path opacity="0.8" d="M352.988 339.952H320.171V343.918H352.988V339.952Z" fill="#E6E6E6"/>
<path opacity="0.82" d="M352.988 349.091H320.171V353.058H352.988V349.091Z" fill="#E6E6E6"/>
<path opacity="0.75" d="M352.988 358.231H320.171V362.197H352.988V358.231Z" fill="#E6E6E6"/>
<path opacity="0.31" d="M352.988 367.37H320.171V371.337H352.988V367.37Z" fill="#E6E6E6"/>
<path opacity="0.22" d="M352.988 376.51H320.171V380.476H352.988V376.51Z" fill="#E6E6E6"/>
<path opacity="0.43" d="M352.988 385.65H320.171V389.616H352.988V385.65Z" fill="#E6E6E6"/>
<path opacity="0.68" d="M352.988 394.789H320.171V398.756H352.988V394.789Z" fill="#E6E6E6"/>
<path opacity="0.38" d="M352.988 403.929H320.171V407.895H352.988V403.929Z" fill="#E6E6E6"/>
<path opacity="0.84" d="M352.988 413.068H320.171V417.035H352.988V413.068Z" fill="#E6E6E6"/>
<path d="M244.001 217.689V229.415H300.481V217.689H244.001ZM256.61 225.621H250.737V221.655H256.61V225.621ZM265.764 225.621H260.064V221.655H265.764V225.621ZM275.091 225.621H269.391V221.655H275.091V225.621ZM284.418 225.621H278.545V221.655H284.418V225.621ZM293.745 225.621H287.872V221.655H293.745V225.621Z" fill="#333333"/>
<path d="M310.844 221.655H309.29V225.621H310.844V221.655Z" fill="#333333"/>
<path d="M300.481 217.689V229.415H327.08V217.689H300.481ZM310.844 225.621H305.144V221.655H310.844V225.621ZM323.107 225.621H317.408V221.655H323.107V225.621Z" fill="#4D4D4D"/>
<path d="M322.935 221.655H321.38V225.621H322.935V221.655Z" fill="#333333"/>
<path d="M327.425 465.663H209.976L327.425 379.096V465.663Z" fill="#333333"/>
<path d="M152.287 182.51H142.787V218.551H152.287V182.51Z" fill="#4D4D4D"/>
<path d="M142.96 182.51H133.288V218.551H142.96V182.51Z" fill="#333333"/>
<path d="M162.132 182.51H152.46V218.551H162.132V182.51Z" fill="#666666"/>
<path d="M190.113 243.21H163.168V448.764H190.113V243.21Z" fill="#666666"/>
<path d="M131.561 243.21H108.071V448.764H131.561V243.21Z" fill="#333333"/>
<path d="M163.168 243.21H131.388V448.764H163.168V243.21Z" fill="#4D4D4D"/>
<path opacity="0.6" d="M114.807 249.246H111.352V446.005H114.807V249.246Z" fill="#E6E6E6"/>
<path opacity="0.6" d="M121.543 249.246H118.088V446.005H121.543V249.246Z" fill="#E6E6E6"/>
<path opacity="0.6" d="M128.279 249.246H124.825V446.005H128.279V249.246Z" fill="#E6E6E6"/>
<path d="M168.523 249.246H165.068V446.005H168.523V249.246Z" fill="#E6E6E6"/>
<path d="M175.259 249.246H171.804V446.005H175.259V249.246Z" fill="#E6E6E6"/>
<path d="M188.385 249.246H184.931V446.005H188.385V249.246Z" fill="#E6E6E6"/>
<path d="M181.995 249.246H178.54V446.005H181.995V249.246Z" fill="#E6E6E6"/>
<path opacity="0.8" d="M135.36 446.005H159.196V249.246H135.36V446.005ZM139.16 252.695H155.396V442.556H139.16V252.695Z" fill="#E6E6E6"/>
<path opacity="0.8" d="M142.269 439.28H152.46V255.799H142.269V439.28ZM145.724 260.11H146.933H147.624H149.005V434.969H147.624H146.933H145.724V260.11Z" fill="#E6E6E6"/>
<path opacity="0.8" d="M147.624 260.11H146.933V434.969H147.624V260.11Z" fill="#E6E6E6"/>
<path d="M159.541 207.17H135.706V243.211H159.541V207.17Z" fill="#4D4D4D"/>
<path d="M159.541 207.17H135.706V243.211H159.541V207.17Z" fill="#4D4D4D"/>
<path d="M183.377 207.17H159.541V243.211H183.377V207.17Z" fill="#666666"/>
<path d="M135.706 207.17H111.87V243.211H135.706V207.17Z" fill="#333333"/>
<path d="M161.959 182.51H133.288L142.787 189.063H152.46L161.959 182.51Z" fill="#808080"/>
<path d="M674.42 169.232H660.603V209.756H674.42V169.232Z" fill="#4D4D4D"/>
<path d="M660.43 169.232H646.612V209.756H660.43V169.232Z" fill="#333333"/>
<path d="M688.238 169.232H674.42V209.756H688.238V169.232Z" fill="#666666"/>
<path d="M729 237.692H689.965V469.285H729V237.692Z" fill="#666666"/>
<path d="M644.021 237.692H610.168V469.285H644.021V237.692Z" fill="#333333"/>
<path d="M689.965 237.692H644.022V469.285H689.965V237.692Z" fill="#4D4D4D"/>
<path opacity="0.4" d="M619.841 244.59H614.832V466.181H619.841V244.59Z" fill="#E6E6E6"/>
<path opacity="0.4" d="M629.686 244.59H624.677V466.181H629.686V244.59Z" fill="#E6E6E6"/>
<path opacity="0.4" d="M639.531 244.59H634.522V466.181H639.531V244.59Z" fill="#E6E6E6"/>
<path d="M697.738 244.59H692.729V466.181H697.738V244.59Z" fill="#E6E6E6"/>
<path d="M707.583 244.59H702.574V466.181H707.583V244.59Z" fill="#E6E6E6"/>
<path d="M726.409 244.59H721.4V466.181H726.409V244.59Z" fill="#E6E6E6"/>
<path d="M717.255 244.59H712.246V466.181H717.255V244.59Z" fill="#E6E6E6"/>
<path d="M649.894 466.181H684.438V244.59H649.894V466.181ZM655.248 248.384H678.738V462.387H655.248V248.384Z" fill="#E6E6E6"/>
<path d="M659.566 458.766H674.42V252.005H659.566V458.766ZM664.748 256.834H666.648H667.512H669.411V453.937H667.512H666.648H664.748V256.834Z" fill="#E6E6E6"/>
<path d="M667.512 256.833H666.648V453.937H667.512V256.833Z" fill="#E6E6E6"/>
<path d="M684.784 197.168H650.24V237.692H684.784V197.168Z" fill="#4D4D4D"/>
<path d="M684.784 197.168H650.24V237.692H684.784V197.168Z" fill="#4D4D4D"/>
<path d="M719.328 197.168H684.784V237.692H719.328V197.168Z" fill="#666666"/>
<path d="M650.412 197.168H615.868V237.692H650.412V197.168Z" fill="#333333"/>
<path d="M688.411 169.232H646.612L660.603 176.647H674.42L688.411 169.232Z" fill="#808080"/>
<path d="M574.761 269.766H480.283V301.151H574.761V269.766Z" fill="#E6E6E6"/>
<path d="M517.418 269.766H480.283V301.151H517.418V269.766Z" fill="#B3B3B3"/>
<path d="M517.418 301.324H444.011V453.764H517.418V301.324Z" fill="#333333"/>
<path d="M632.104 301.324H517.418V453.764H632.104V301.324Z" fill="#4D4D4D"/>
<path d="M508.436 285.804H451.957V301.323H508.436V285.804Z" fill="#333333"/>
<path d="M615.005 285.804H534.344V301.323H615.005V285.804Z" fill="#4D4D4D"/>
<path d="M549.716 257.867H517.418V269.766H549.716V257.867Z" fill="#E6E6E6"/>
<path d="M533.481 245.796H517.418V257.695H533.481V245.796Z" fill="#4D4D4D"/>
<path d="M517.245 245.796H501.182V257.695H517.245V245.796Z" fill="#333333"/>
<path d="M517.418 257.867H492.719V269.766H517.418V257.867Z" fill="#B3B3B3"/>
<path d="M516.381 245.796L517.418 218.205L518.281 245.796H516.381Z" fill="#333333"/>
<path opacity="0.12" d="M467.156 307.531H461.111V313.567H467.156V307.531Z" fill="white"/>
<path opacity="0.25" d="M475.447 307.531H469.401V313.567H475.447V307.531Z" fill="white"/>
<path opacity="0.36" d="M483.737 307.531H477.692V313.567H483.737V307.531Z" fill="white"/>
<path opacity="0.12" d="M492.028 307.531H485.982V313.567H492.028V307.531Z" fill="white"/>
<path opacity="0.14" d="M500.318 307.531H494.273V313.567H500.318V307.531Z" fill="white"/>
<path opacity="0.28" d="M467.156 315.464H461.111V321.499H467.156V315.464Z" fill="white"/>
<path opacity="0.4" d="M475.447 315.464H469.401V321.499H475.447V315.464Z" fill="white"/>
<path opacity="0.16" d="M483.737 315.464H477.692V321.499H483.737V315.464Z" fill="white"/>
<path opacity="0.17" d="M500.318 315.464H494.273V321.499H500.318V315.464Z" fill="white"/>
<path opacity="0.27" d="M467.156 323.396H461.111V329.432H467.156V323.396Z" fill="white"/>
<path opacity="0.45" d="M475.447 323.396H469.401V329.432H475.447V323.396Z" fill="white"/>
<path opacity="0.45" d="M483.737 323.396H477.692V329.432H483.737V323.396Z" fill="white"/>
<path opacity="0.48" d="M492.028 323.396H485.982V329.432H492.028V323.396Z" fill="white"/>
<path opacity="0.25" d="M500.318 323.396H494.273V329.432H500.318V323.396Z" fill="white"/>
<path opacity="0.28" d="M467.156 331.329H461.111V337.364H467.156V331.329Z" fill="white"/>
<path opacity="0.13" d="M475.447 331.329H469.401V337.364H475.447V331.329Z" fill="white"/>
<path opacity="0.07" d="M483.737 331.329H477.692V337.364H483.737V331.329Z" fill="white"/>
<path opacity="0.39" d="M492.028 331.329H485.982V337.364H492.028V331.329Z" fill="white"/>
<path opacity="0.47" d="M500.318 331.329H494.273V337.364H500.318V331.329Z" fill="white"/>
<path opacity="0.28" d="M467.156 339.261H461.111V345.297H467.156V339.261Z" fill="white"/>
<path opacity="0.2" d="M475.447 339.261H469.401V345.297H475.447V339.261Z" fill="white"/>
<path opacity="0.04" d="M483.737 339.261H477.692V345.297H483.737V339.261Z" fill="white"/>
<path opacity="0.43" d="M492.028 339.261H485.982V345.297H492.028V339.261Z" fill="white"/>
<path opacity="0.48" d="M500.318 339.261H494.273V345.297H500.318V339.261Z" fill="white"/>
<path opacity="0.28" d="M467.156 347.193H461.111V353.229H467.156V347.193Z" fill="white"/>
<path opacity="0.19" d="M475.447 347.193H469.401V353.229H475.447V347.193Z" fill="white"/>
<path opacity="0.01" d="M483.737 347.193H477.692V353.229H483.737V347.193Z" fill="white"/>
<path opacity="0.27" d="M492.028 347.193H485.982V353.229H492.028V347.193Z" fill="white"/>
<path opacity="0.24" d="M500.318 347.193H494.273V353.229H500.318V347.193Z" fill="white"/>
<path opacity="0.07" d="M467.156 355.298H461.111V361.334H467.156V355.298Z" fill="white"/>
<path opacity="0.25" d="M475.447 355.298H469.401V361.334H475.447V355.298Z" fill="white"/>
<path opacity="0.26" d="M483.737 355.298H477.692V361.334H483.737V355.298Z" fill="white"/>
<path opacity="0.39" d="M492.028 355.298H485.982V361.334H492.028V355.298Z" fill="white"/>
<path opacity="0.22" d="M500.318 355.298H494.273V361.334H500.318V355.298Z" fill="white"/>
<path opacity="0.15" d="M467.156 363.231H461.111V369.266H467.156V363.231Z" fill="white"/>
<path opacity="0.23" d="M475.447 363.231H469.401V369.266H475.447V363.231Z" fill="white"/>
<path opacity="0.05" d="M483.737 363.231H477.692V369.266H483.737V363.231Z" fill="white"/>
<path opacity="0.2" d="M492.028 363.231H485.982V369.266H492.028V363.231Z" fill="white"/>
<path opacity="0.31" d="M500.318 363.231H494.273V369.266H500.318V363.231Z" fill="white"/>
<path opacity="0.15" d="M467.156 371.163H461.111V377.199H467.156V371.163Z" fill="white"/>
<path opacity="0.33" d="M475.447 371.163H469.401V377.199H475.447V371.163Z" fill="white"/>
<path opacity="0.46" d="M483.737 371.163H477.692V377.199H483.737V371.163Z" fill="white"/>
<path opacity="0.25" d="M492.028 371.163H485.982V377.199H492.028V371.163Z" fill="white"/>
<path opacity="0.43" d="M500.318 371.163H494.273V377.199H500.318V371.163Z" fill="white"/>
<path opacity="0.4" d="M467.156 379.096H461.111V385.131H467.156V379.096Z" fill="white"/>
<path opacity="0.39" d="M475.447 379.096H469.401V385.131H475.447V379.096Z" fill="white"/>
<path opacity="0.01" d="M483.737 379.096H477.692V385.131H483.737V379.096Z" fill="white"/>
<path opacity="0.12" d="M492.028 379.096H485.982V385.131H492.028V379.096Z" fill="white"/>
<path opacity="0.07" d="M500.318 379.096H494.273V385.131H500.318V379.096Z" fill="white"/>
<path opacity="0.07" d="M467.156 387.028H461.111V393.064H467.156V387.028Z" fill="white"/>
<path opacity="0.02" d="M475.447 387.028H469.401V393.064H475.447V387.028Z" fill="white"/>
<path opacity="0.12" d="M483.737 387.028H477.692V393.064H483.737V387.028Z" fill="white"/>
<path opacity="0.23" d="M492.028 387.028H485.982V393.064H492.028V387.028Z" fill="white"/>
<path opacity="0.26" d="M500.318 387.028H494.273V393.064H500.318V387.028Z" fill="white"/>
<path opacity="0.27" d="M467.156 394.961H461.111V400.996H467.156V394.961Z" fill="white"/>
<path opacity="0.38" d="M475.447 394.961H469.401V400.996H475.447V394.961Z" fill="white"/>
<path opacity="0.05" d="M483.737 394.961H477.692V400.996H483.737V394.961Z" fill="white"/>
<path opacity="0.45" d="M492.028 394.961H485.982V400.996H492.028V394.961Z" fill="white"/>
<path opacity="0.15" d="M500.318 394.961H494.273V400.996H500.318V394.961Z" fill="white"/>
<path opacity="0.06" d="M467.156 402.893H461.111V408.929H467.156V402.893Z" fill="white"/>
<path opacity="0.47" d="M475.447 402.893H469.401V408.929H475.447V402.893Z" fill="white"/>
<path opacity="0.15" d="M483.737 402.893H477.692V408.929H483.737V402.893Z" fill="white"/>
<path opacity="0.44" d="M492.028 402.893H485.982V408.929H492.028V402.893Z" fill="white"/>
<path opacity="0.14" d="M500.318 402.893H494.273V408.929H500.318V402.893Z" fill="white"/>
<path opacity="0.15" d="M467.156 410.826H461.111V416.861H467.156V410.826Z" fill="white"/>
<path opacity="0.43" d="M475.447 410.826H469.401V416.861H475.447V410.826Z" fill="white"/>
<path opacity="0.07" d="M483.737 410.826H477.692V416.861H483.737V410.826Z" fill="white"/>
<path opacity="0.47" d="M492.028 410.826H485.982V416.861H492.028V410.826Z" fill="white"/>
<path opacity="0.11" d="M500.318 410.826H494.273V416.861H500.318V410.826Z" fill="white"/>
<path opacity="0.07" d="M467.156 418.758H461.111V424.794H467.156V418.758Z" fill="white"/>
<path opacity="0.34" d="M475.447 418.758H469.401V424.794H475.447V418.758Z" fill="white"/>
<path opacity="0.5" d="M483.737 418.758H477.692V424.794H483.737V418.758Z" fill="white"/>
<path opacity="0.36" d="M492.028 418.758H485.982V424.794H492.028V418.758Z" fill="white"/>
<path opacity="0.34" d="M500.318 418.758H494.273V424.794H500.318V418.758Z" fill="white"/>
<path opacity="0.47" d="M467.156 426.691H461.111V432.726H467.156V426.691Z" fill="white"/>
<path opacity="0.41" d="M475.447 426.691H469.401V432.726H475.447V426.691Z" fill="white"/>
<path opacity="0.3" d="M483.737 426.691H477.692V432.726H483.737V426.691Z" fill="white"/>
<path opacity="0.33" d="M492.028 426.691H485.982V432.726H492.028V426.691Z" fill="white"/>
<path opacity="0.12" d="M500.318 426.691H494.273V432.726H500.318V426.691Z" fill="white"/>
<path opacity="0.24" d="M467.156 434.623H461.111V440.658H467.156V434.623Z" fill="white"/>
<path opacity="0.29" d="M475.447 434.623H469.401V440.658H475.447V434.623Z" fill="white"/>
<path opacity="0.27" d="M492.028 434.623H485.982V440.658H492.028V434.623Z" fill="white"/>
<path opacity="0.04" d="M500.318 434.623H494.273V440.658H500.318V434.623Z" fill="white"/>
<path opacity="0.11" d="M467.156 442.555H461.111V448.591H467.156V442.555Z" fill="white"/>
<path opacity="0.05" d="M475.447 442.555H469.401V448.591H475.447V442.555Z" fill="white"/>
<path opacity="0.04" d="M483.737 442.555H477.692V448.591H483.737V442.555Z" fill="white"/>
<path opacity="0.02" d="M492.028 442.555H485.982V448.591H492.028V442.555Z" fill="white"/>
<path opacity="0.3" d="M537.453 307.531H531.408V313.567H537.453V307.531Z" fill="white"/>
<path opacity="0.72" d="M545.398 307.531H539.353V313.567H545.398V307.531Z" fill="white"/>
<path opacity="0.7" d="M553.516 307.531H547.471V313.567H553.516V307.531Z" fill="white"/>
<path opacity="0.52" d="M561.634 307.531H555.589V313.567H561.634V307.531Z" fill="white"/>
<path opacity="0.2" d="M569.752 307.531H563.706V313.567H569.752V307.531Z" fill="white"/>
<path opacity="0.32" d="M577.697 307.531H571.652V313.567H577.697V307.531Z" fill="white"/>
<path opacity="0.13" d="M585.815 307.531H579.77V313.567H585.815V307.531Z" fill="white"/>
<path opacity="0.38" d="M593.933 307.531H587.887V313.567H593.933V307.531Z" fill="white"/>
<path opacity="0.61" d="M601.878 307.531H595.833V313.567H601.878V307.531Z" fill="white"/>
<path d="M609.996 307.531H603.95V313.567H609.996V307.531Z" fill="white"/>
<path opacity="0.91" d="M618.113 307.531H612.068V313.567H618.113V307.531Z" fill="white"/>
<path opacity="0.66" d="M537.453 315.464H531.408V321.499H537.453V315.464Z" fill="white"/>
<path opacity="0.31" d="M545.398 315.464H539.353V321.499H545.398V315.464Z" fill="white"/>
<path opacity="0.95" d="M553.516 315.464H547.471V321.499H553.516V315.464Z" fill="white"/>
<path opacity="0.7" d="M561.634 315.464H555.589V321.499H561.634V315.464Z" fill="white"/>
<path opacity="0.12" d="M569.752 315.464H563.706V321.499H569.752V315.464Z" fill="white"/>
<path opacity="0.24" d="M577.697 315.464H571.652V321.499H577.697V315.464Z" fill="white"/>
<path opacity="0.66" d="M585.815 315.464H579.77V321.499H585.815V315.464Z" fill="white"/>
<path opacity="0.71" d="M593.933 315.464H587.887V321.499H593.933V315.464Z" fill="white"/>
<path opacity="0.42" d="M601.878 315.464H595.833V321.499H601.878V315.464Z" fill="white"/>
<path opacity="0.09" d="M609.996 315.464H603.95V321.499H609.996V315.464Z" fill="white"/>
<path opacity="0.32" d="M618.113 315.464H612.068V321.499H618.113V315.464Z" fill="white"/>
<path opacity="0.65" d="M537.453 323.396H531.408V329.432H537.453V323.396Z" fill="white"/>
<path d="M545.398 323.396H539.353V329.432H545.398V323.396Z" fill="white"/>
<path d="M553.516 323.396H547.471V329.432H553.516V323.396Z" fill="white"/>
<path opacity="0.71" d="M561.634 323.396H555.589V329.432H561.634V323.396Z" fill="white"/>
<path opacity="0.2" d="M569.752 323.396H563.706V329.432H569.752V323.396Z" fill="white"/>
<path opacity="0.19" d="M577.697 323.396H571.652V329.432H577.697V323.396Z" fill="white"/>
<path opacity="0.62" d="M585.815 323.396H579.77V329.432H585.815V323.396Z" fill="white"/>
<path opacity="0.93" d="M593.933 323.396H587.887V329.432H593.933V323.396Z" fill="white"/>
<path opacity="0.56" d="M601.878 323.396H595.833V329.432H601.878V323.396Z" fill="white"/>
<path opacity="0.57" d="M609.996 323.396H603.95V329.432H609.996V323.396Z" fill="white"/>
<path opacity="0.52" d="M618.113 323.396H612.068V329.432H618.113V323.396Z" fill="white"/>
<path opacity="0.74" d="M537.453 331.329H531.408V337.364H537.453V331.329Z" fill="white"/>
<path opacity="0.56" d="M545.398 331.329H539.353V337.364H545.398V331.329Z" fill="white"/>
<path opacity="0.78" d="M553.516 331.329H547.471V337.364H553.516V331.329Z" fill="white"/>
<path opacity="0.41" d="M561.634 331.329H555.589V337.364H561.634V331.329Z" fill="white"/>
<path opacity="0.14" d="M569.752 331.329H563.706V337.364H569.752V331.329Z" fill="white"/>
<path opacity="0.28" d="M577.697 331.329H571.652V337.364H577.697V331.329Z" fill="white"/>
<path opacity="0.36" d="M585.815 331.329H579.77V337.364H585.815V331.329Z" fill="white"/>
<path opacity="0.14" d="M593.933 331.329H587.887V337.364H593.933V331.329Z" fill="white"/>
<path opacity="0.5" d="M601.878 331.329H595.833V337.364H601.878V331.329Z" fill="white"/>
<path opacity="0.98" d="M609.996 331.329H603.95V337.364H609.996V331.329Z" fill="white"/>
<path opacity="0.59" d="M618.113 331.329H612.068V337.364H618.113V331.329Z" fill="white"/>
<path opacity="0.07" d="M537.453 339.261H531.408V345.297H537.453V339.261Z" fill="white"/>
<path opacity="0.1" d="M545.398 339.261H539.353V345.297H545.398V339.261Z" fill="white"/>
<path opacity="0.88" d="M553.516 339.261H547.471V345.297H553.516V339.261Z" fill="white"/>
<path opacity="0.68" d="M561.634 339.261H555.589V345.297H561.634V339.261Z" fill="white"/>
<path opacity="0.81" d="M569.752 339.261H563.706V345.297H569.752V339.261Z" fill="white"/>
<path opacity="0.62" d="M577.697 339.261H571.652V345.297H577.697V339.261Z" fill="white"/>
<path opacity="0.97" d="M585.815 339.261H579.77V345.297H585.815V339.261Z" fill="white"/>
<path opacity="0.81" d="M593.933 339.261H587.887V345.297H593.933V339.261Z" fill="white"/>
<path opacity="0.79" d="M601.878 339.261H595.833V345.297H601.878V339.261Z" fill="white"/>
<path opacity="0.03" d="M609.996 339.261H603.95V345.297H609.996V339.261Z" fill="white"/>
<path opacity="0.95" d="M618.113 339.261H612.068V345.297H618.113V339.261Z" fill="white"/>
<path opacity="0.62" d="M537.453 347.193H531.408V353.229H537.453V347.193Z" fill="white"/>
<path opacity="0.22" d="M545.398 347.193H539.353V353.229H545.398V347.193Z" fill="white"/>
<path opacity="0.42" d="M553.516 347.193H547.471V353.229H553.516V347.193Z" fill="white"/>
<path opacity="0.56" d="M561.634 347.193H555.589V353.229H561.634V347.193Z" fill="white"/>
<path opacity="0.03" d="M569.752 347.193H563.706V353.229H569.752V347.193Z" fill="white"/>
<path opacity="0.64" d="M577.697 347.193H571.652V353.229H577.697V347.193Z" fill="white"/>
<path opacity="0.82" d="M585.815 347.193H579.77V353.229H585.815V347.193Z" fill="white"/>
<path opacity="0.52" d="M593.933 347.193H587.887V353.229H593.933V347.193Z" fill="white"/>
<path opacity="0.46" d="M601.878 347.193H595.833V353.229H601.878V347.193Z" fill="white"/>
<path opacity="0.27" d="M609.996 347.193H603.95V353.229H609.996V347.193Z" fill="white"/>
<path opacity="0.46" d="M618.113 347.193H612.068V353.229H618.113V347.193Z" fill="white"/>
<path opacity="0.66" d="M537.453 355.298H531.408V361.334H537.453V355.298Z" fill="white"/>
<path opacity="0.7" d="M545.398 355.298H539.353V361.334H545.398V355.298Z" fill="white"/>
<path opacity="0.94" d="M553.516 355.298H547.471V361.334H553.516V355.298Z" fill="white"/>
<path opacity="0.5" d="M561.634 355.298H555.589V361.334H561.634V355.298Z" fill="white"/>
<path opacity="0.12" d="M569.752 355.298H563.706V361.334H569.752V355.298Z" fill="white"/>
<path opacity="0.36" d="M577.697 355.298H571.652V361.334H577.697V355.298Z" fill="white"/>
<path opacity="0.51" d="M585.815 355.298H579.77V361.334H585.815V355.298Z" fill="white"/>
<path opacity="0.37" d="M593.933 355.298H587.887V361.334H593.933V355.298Z" fill="white"/>
<path opacity="0.66" d="M601.878 355.298H595.833V361.334H601.878V355.298Z" fill="white"/>
<path opacity="0.42" d="M609.996 355.298H603.95V361.334H609.996V355.298Z" fill="white"/>
<path opacity="0.5" d="M618.113 355.298H612.068V361.334H618.113V355.298Z" fill="white"/>
<path opacity="0.52" d="M537.453 363.231H531.408V369.266H537.453V363.231Z" fill="white"/>
<path opacity="0.61" d="M545.398 363.231H539.353V369.266H545.398V363.231Z" fill="white"/>
<path opacity="0.84" d="M553.516 363.231H547.471V369.266H553.516V363.231Z" fill="white"/>
<path opacity="0.89" d="M561.634 363.231H555.589V369.266H561.634V363.231Z" fill="white"/>
<path opacity="0.33" d="M569.752 363.231H563.706V369.266H569.752V363.231Z" fill="white"/>
<path opacity="0.25" d="M577.697 363.231H571.652V369.266H577.697V363.231Z" fill="white"/>
<path opacity="0.95" d="M585.815 363.231H579.77V369.266H585.815V363.231Z" fill="white"/>
<path opacity="0.09" d="M593.933 363.231H587.887V369.266H593.933V363.231Z" fill="white"/>
<path opacity="0.44" d="M601.878 363.231H595.833V369.266H601.878V363.231Z" fill="white"/>
<path opacity="0.51" d="M609.996 363.231H603.95V369.266H609.996V363.231Z" fill="white"/>
<path opacity="0.97" d="M618.113 363.231H612.068V369.266H618.113V363.231Z" fill="white"/>
<path opacity="0.26" d="M537.453 371.163H531.408V377.199H537.453V371.163Z" fill="white"/>
<path opacity="0.92" d="M545.398 371.163H539.353V377.199H545.398V371.163Z" fill="white"/>
<path opacity="0.33" d="M553.516 371.163H547.471V377.199H553.516V371.163Z" fill="white"/>
<path opacity="0.23" d="M561.634 371.163H555.589V377.199H561.634V371.163Z" fill="white"/>
<path opacity="0.42" d="M569.752 371.163H563.706V377.199H569.752V371.163Z" fill="white"/>
<path opacity="0.57" d="M577.697 371.163H571.652V377.199H577.697V371.163Z" fill="white"/>
<path opacity="0.73" d="M585.815 371.163H579.77V377.199H585.815V371.163Z" fill="white"/>
<path opacity="0.87" d="M593.933 371.163H587.887V377.199H593.933V371.163Z" fill="white"/>
<path opacity="0.22" d="M601.878 371.163H595.833V377.199H601.878V371.163Z" fill="white"/>
<path opacity="0.89" d="M609.996 371.163H603.95V377.199H609.996V371.163Z" fill="white"/>
<path opacity="0.73" d="M618.113 371.163H612.068V377.199H618.113V371.163Z" fill="white"/>
<path opacity="0.35" d="M537.453 379.096H531.408V385.131H537.453V379.096Z" fill="white"/>
<path opacity="0.81" d="M545.398 379.096H539.353V385.131H545.398V379.096Z" fill="white"/>
<path opacity="0.56" d="M553.516 379.096H547.471V385.131H553.516V379.096Z" fill="white"/>
<path opacity="0.81" d="M561.634 379.096H555.589V385.131H561.634V379.096Z" fill="white"/>
<path opacity="0.87" d="M569.752 379.096H563.706V385.131H569.752V379.096Z" fill="white"/>
<path opacity="0.39" d="M577.697 379.096H571.652V385.131H577.697V379.096Z" fill="white"/>
<path opacity="0.31" d="M585.815 379.096H579.77V385.131H585.815V379.096Z" fill="white"/>
<path opacity="0.98" d="M593.933 379.096H587.887V385.131H593.933V379.096Z" fill="white"/>
<path opacity="0.17" d="M601.878 379.096H595.833V385.131H601.878V379.096Z" fill="white"/>
<path opacity="0.06" d="M609.996 379.096H603.95V385.131H609.996V379.096Z" fill="white"/>
<path opacity="0.57" d="M618.113 379.096H612.068V385.131H618.113V379.096Z" fill="white"/>
<path opacity="0.67" d="M537.453 387.028H531.408V393.064H537.453V387.028Z" fill="white"/>
<path opacity="0.83" d="M545.398 387.028H539.353V393.064H545.398V387.028Z" fill="white"/>
<path opacity="0.99" d="M553.516 387.028H547.471V393.064H553.516V387.028Z" fill="white"/>
<path opacity="0.62" d="M561.634 387.028H555.589V393.064H561.634V387.028Z" fill="white"/>
<path opacity="0.87" d="M569.752 387.028H563.706V393.064H569.752V387.028Z" fill="white"/>
<path opacity="0.14" d="M577.697 387.028H571.652V393.064H577.697V387.028Z" fill="white"/>
<path opacity="0.12" d="M585.815 387.028H579.77V393.064H585.815V387.028Z" fill="white"/>
<path opacity="0.11" d="M593.933 387.028H587.887V393.064H593.933V387.028Z" fill="white"/>
<path opacity="0.39" d="M601.878 387.028H595.833V393.064H601.878V387.028Z" fill="white"/>
<path opacity="0.58" d="M609.996 387.028H603.95V393.064H609.996V387.028Z" fill="white"/>
<path opacity="0.54" d="M618.113 387.028H612.068V393.064H618.113V387.028Z" fill="white"/>
<path opacity="0.99" d="M537.453 394.961H531.408V400.996H537.453V394.961Z" fill="white"/>
<path opacity="0.28" d="M545.398 394.961H539.353V400.996H545.398V394.961Z" fill="white"/>
<path opacity="0.78" d="M553.516 394.961H547.471V400.996H553.516V394.961Z" fill="white"/>
<path opacity="0.65" d="M561.634 394.961H555.589V400.996H561.634V394.961Z" fill="white"/>
<path opacity="0.32" d="M569.752 394.961H563.706V400.996H569.752V394.961Z" fill="white"/>
<path opacity="0.55" d="M577.697 394.961H571.652V400.996H577.697V394.961Z" fill="white"/>
<path opacity="0.4" d="M585.815 394.961H579.77V400.996H585.815V394.961Z" fill="white"/>
<path opacity="0.22" d="M593.933 394.961H587.887V400.996H593.933V394.961Z" fill="white"/>
<path opacity="0.87" d="M601.878 394.961H595.833V400.996H601.878V394.961Z" fill="white"/>
<path opacity="0.02" d="M609.996 394.961H603.95V400.996H609.996V394.961Z" fill="white"/>
<path opacity="0.39" d="M618.113 394.961H612.068V400.996H618.113V394.961Z" fill="white"/>
<path opacity="0.89" d="M537.453 402.893H531.408V408.929H537.453V402.893Z" fill="white"/>
<path opacity="0.97" d="M545.398 402.893H539.353V408.929H545.398V402.893Z" fill="white"/>
<path opacity="0.79" d="M553.516 402.893H547.471V408.929H553.516V402.893Z" fill="white"/>
<path opacity="0.41" d="M561.634 402.893H555.589V408.929H561.634V402.893Z" fill="white"/>
<path opacity="0.13" d="M569.752 402.893H563.706V408.929H569.752V402.893Z" fill="white"/>
<path opacity="0.9" d="M577.697 402.893H571.652V408.929H577.697V402.893Z" fill="white"/>
<path opacity="0.98" d="M585.815 402.893H579.77V408.929H585.815V402.893Z" fill="white"/>
<path opacity="0.67" d="M593.933 402.893H587.887V408.929H593.933V402.893Z" fill="white"/>
<path opacity="0.65" d="M601.878 402.893H595.833V408.929H601.878V402.893Z" fill="white"/>
<path opacity="0.89" d="M609.996 402.893H603.95V408.929H609.996V402.893Z" fill="white"/>
<path opacity="0.98" d="M618.113 402.893H612.068V408.929H618.113V402.893Z" fill="white"/>
<path opacity="0.29" d="M537.453 410.826H531.408V416.861H537.453V410.826Z" fill="white"/>
<path opacity="0.74" d="M545.398 410.826H539.353V416.861H545.398V410.826Z" fill="white"/>
<path opacity="0.64" d="M553.516 410.826H547.471V416.861H553.516V410.826Z" fill="white"/>
<path opacity="0.65" d="M561.634 410.826H555.589V416.861H561.634V410.826Z" fill="white"/>
<path opacity="0.07" d="M569.752 410.826H563.706V416.861H569.752V410.826Z" fill="white"/>
<path opacity="0.16" d="M577.697 410.826H571.652V416.861H577.697V410.826Z" fill="white"/>
<path opacity="0.84" d="M585.815 410.826H579.77V416.861H585.815V410.826Z" fill="white"/>
<path opacity="0.88" d="M593.933 410.826H587.887V416.861H593.933V410.826Z" fill="white"/>
<path opacity="0.57" d="M601.878 410.826H595.833V416.861H601.878V410.826Z" fill="white"/>
<path opacity="0.31" d="M609.996 410.826H603.95V416.861H609.996V410.826Z" fill="white"/>
<path opacity="0.03" d="M618.113 410.826H612.068V416.861H618.113V410.826Z" fill="white"/>
<path opacity="0.3" d="M537.453 418.758H531.408V424.794H537.453V418.758Z" fill="white"/>
<path opacity="0.59" d="M545.398 418.758H539.353V424.794H545.398V418.758Z" fill="white"/>
<path opacity="0.93" d="M553.516 418.758H547.471V424.794H553.516V418.758Z" fill="white"/>
<path opacity="0.06" d="M561.634 418.758H555.589V424.794H561.634V418.758Z" fill="white"/>
<path opacity="0.74" d="M569.752 418.758H563.706V424.794H569.752V418.758Z" fill="white"/>
<path opacity="0.22" d="M577.697 418.758H571.652V424.794H577.697V418.758Z" fill="white"/>
<path opacity="0.51" d="M585.815 418.758H579.77V424.794H585.815V418.758Z" fill="white"/>
<path opacity="0.7" d="M593.933 418.758H587.887V424.794H593.933V418.758Z" fill="white"/>
<path opacity="0.47" d="M601.878 418.758H595.833V424.794H601.878V418.758Z" fill="white"/>
<path opacity="0.08" d="M609.996 418.758H603.95V424.794H609.996V418.758Z" fill="white"/>
<path opacity="0.93" d="M618.113 418.758H612.068V424.794H618.113V418.758Z" fill="white"/>
<path opacity="0.81" d="M537.453 426.691H531.408V432.726H537.453V426.691Z" fill="white"/>
<path opacity="0.9" d="M545.398 426.691H539.353V432.726H545.398V426.691Z" fill="white"/>
<path opacity="0.55" d="M553.516 426.691H547.471V432.726H553.516V426.691Z" fill="white"/>
<path opacity="0.14" d="M561.634 426.691H555.589V432.726H561.634V426.691Z" fill="white"/>
<path opacity="0.66" d="M569.752 426.691H563.706V432.726H569.752V426.691Z" fill="white"/>
<path opacity="0.92" d="M577.697 426.691H571.652V432.726H577.697V426.691Z" fill="white"/>
<path opacity="0.4" d="M585.815 426.691H579.77V432.726H585.815V426.691Z" fill="white"/>
<path opacity="0.6" d="M593.933 426.691H587.887V432.726H593.933V426.691Z" fill="white"/>
<path opacity="0.99" d="M601.878 426.691H595.833V432.726H601.878V426.691Z" fill="white"/>
<path opacity="0.68" d="M609.996 426.691H603.95V432.726H609.996V426.691Z" fill="white"/>
<path opacity="0.01" d="M618.113 426.691H612.068V432.726H618.113V426.691Z" fill="white"/>
<path opacity="0.82" d="M537.453 434.623H531.408V440.658H537.453V434.623Z" fill="white"/>
<path opacity="0.92" d="M545.398 434.623H539.353V440.658H545.398V434.623Z" fill="white"/>
<path opacity="0.29" d="M553.516 434.623H547.471V440.658H553.516V434.623Z" fill="white"/>
<path opacity="0.73" d="M561.634 434.623H555.589V440.658H561.634V434.623Z" fill="white"/>
<path opacity="0.42" d="M569.752 434.623H563.706V440.658H569.752V434.623Z" fill="white"/>
<path opacity="0.06" d="M577.697 434.623H571.652V440.658H577.697V434.623Z" fill="white"/>
<path opacity="0.7" d="M585.815 434.623H579.77V440.658H585.815V434.623Z" fill="white"/>
<path opacity="0.97" d="M593.933 434.623H587.887V440.658H593.933V434.623Z" fill="white"/>
<path opacity="0.51" d="M601.878 434.623H595.833V440.658H601.878V434.623Z" fill="white"/>
<path opacity="0.69" d="M609.996 434.623H603.95V440.658H609.996V434.623Z" fill="white"/>
<path opacity="0.49" d="M618.113 434.623H612.068V440.658H618.113V434.623Z" fill="white"/>
<path opacity="0.45" d="M537.453 442.555H531.408V448.591H537.453V442.555Z" fill="white"/>
<path opacity="0.46" d="M545.398 442.555H539.353V448.591H545.398V442.555Z" fill="white"/>
<path opacity="0.04" d="M553.516 442.555H547.471V448.591H553.516V442.555Z" fill="white"/>
<path opacity="0.56" d="M561.634 442.555H555.589V448.591H561.634V442.555Z" fill="white"/>
<path opacity="0.4" d="M569.752 442.555H563.706V448.591H569.752V442.555Z" fill="white"/>
<path opacity="0.59" d="M577.697 442.555H571.652V448.591H577.697V442.555Z" fill="white"/>
<path opacity="0.82" d="M585.815 442.555H579.77V448.591H585.815V442.555Z" fill="white"/>
<path opacity="0.99" d="M593.933 442.555H587.887V448.591H593.933V442.555Z" fill="white"/>
<path opacity="0.1" d="M601.878 442.555H595.833V448.591H601.878V442.555Z" fill="white"/>
<path opacity="0.87" d="M609.996 442.555H603.95V448.591H609.996V442.555Z" fill="white"/>
<path d="M618.113 442.555H612.068V448.591H618.113V442.555Z" fill="white"/>
<path d="M435.375 268.732H378.378V447.04H435.375V268.732Z" fill="#333333"/>
<path d="M404.286 259.765H378.378V269.766H404.286V259.765Z" fill="#333333"/>
<path d="M393.404 253.902H378.378V259.765H393.404V253.902Z" fill="#333333"/>
<path opacity="0.25" d="M411.367 281.32H402.04V290.632H411.367V281.32Z" fill="white"/>
<path opacity="0.15" d="M411.367 304.255H402.04V313.567H411.367V304.255Z" fill="white"/>
<path opacity="0.19" d="M411.367 349.953H402.04V359.265H411.367V349.953Z" fill="white"/>
<path opacity="0.17" d="M411.367 372.716H402.04V382.028H411.367V372.716Z" fill="white"/>
<path opacity="0.22" d="M411.367 395.478H402.04V404.79H411.367V395.478Z" fill="white"/>
<path d="M411.367 418.414H402.04V427.726H411.367V418.414Z" fill="white"/>
<path d="M393.059 368.06H339.688V383.752H393.059V368.06Z" fill="#333333"/>
<path d="M419.658 368.06H393.059V383.752H419.658V368.06Z" fill="#4D4D4D"/>
<path d="M339.688 368.06L356.27 360.127L393.059 368.06H339.688Z" fill="#333333"/>
<path d="M356.27 360.127L393.059 368.06H419.658L356.27 360.127Z" fill="#4D4D4D"/>
<path d="M405.495 379.096H327.425V450.488H405.495V379.096Z" fill="#333333"/>
<path d="M431.403 379.096H405.495V450.488H431.403V379.096Z" fill="#4D4D4D"/>
<path opacity="0.81" d="M425.358 384.097H411.367V389.27H425.358V384.097Z" fill="white"/>
<path opacity="0.76" d="M425.358 393.581H411.367V398.754H425.358V393.581Z" fill="white"/>
<path opacity="0.32" d="M425.358 403.066H411.367V408.239H425.358V403.066Z" fill="white"/>
<path opacity="0.49" d="M425.358 412.723H411.367V417.896H425.358V412.723Z" fill="white"/>
<path opacity="0.99" d="M425.358 431.691H411.367V436.865H425.358V431.691Z" fill="white"/>
<path opacity="0.1" d="M353.852 384.097H339.861V389.27H353.852V384.097Z" fill="white"/>
<path opacity="0.04" d="M373.369 384.097H359.378V389.27H373.369V384.097Z" fill="white"/>
<path opacity="0.07" d="M393.059 384.097H379.069V389.27H393.059V384.097Z" fill="white"/>
<path opacity="0.06" d="M353.852 393.582H339.861V398.755H353.852V393.582Z" fill="white"/>
<path opacity="0.44" d="M373.369 393.582H359.378V398.755H373.369V393.582Z" fill="white"/>
<path opacity="0.24" d="M393.059 393.582H379.069V398.755H393.059V393.582Z" fill="white"/>
<path opacity="0.55" d="M353.852 403.066H339.861V408.239H353.852V403.066Z" fill="white"/>
<path opacity="0.02" d="M373.369 403.066H359.378V408.239H373.369V403.066Z" fill="white"/>
<path opacity="0.14" d="M393.059 403.066H379.069V408.239H393.059V403.066Z" fill="white"/>
<path opacity="0.43" d="M353.852 412.723H339.861V417.896H353.852V412.723Z" fill="white"/>
<path opacity="0.41" d="M373.369 412.723H359.378V417.896H373.369V412.723Z" fill="white"/>
<path opacity="0.46" d="M393.059 412.723H379.069V417.896H393.059V412.723Z" fill="white"/>
<path opacity="0.45" d="M353.852 422.207H339.861V427.38H353.852V422.207Z" fill="white"/>
<path opacity="0.33" d="M373.369 422.207H359.378V427.38H373.369V422.207Z" fill="white"/>
<path opacity="0.05" d="M393.059 422.207H379.069V427.38H393.059V422.207Z" fill="white"/>
<path opacity="0.27" d="M353.852 431.692H339.861V436.865H353.852V431.692Z" fill="white"/>
<path opacity="0.15" d="M373.369 431.692H359.378V436.865H373.369V431.692Z" fill="white"/>
<path opacity="0.7" d="M393.059 431.692H379.069V436.865H393.059V431.692Z" fill="white"/>
<path d="M25.6829 307.704H-22.6788V456.524H25.6829V307.704Z" fill="#333333"/>
<path d="M80.7806 307.704H25.8556V456.524H80.7806V307.704Z" fill="#4D4D4D"/>
<path d="M25.6829 320.293H-22.6788V322.88H25.6829V320.293Z" fill="#4D4D4D"/>
<path d="M80.7806 320.293H25.8556V322.88H80.7806V320.293Z" fill="#333333"/>
<path opacity="0.32" d="M0.638458 325.811H-4.54321V330.984H0.638458V325.811Z" fill="white"/>
<path opacity="0.25" d="M7.71997 325.811H2.53833V330.984H7.71997V325.811Z" fill="white"/>
<path opacity="0.12" d="M21.8831 325.811H16.7014V330.984H21.8831V325.811Z" fill="white"/>
<path opacity="0.22" d="M0.638458 332.881H-4.54321V338.055H0.638458V332.881Z" fill="white"/>
<path opacity="0.47" d="M7.71997 332.881H2.53833V338.055H7.71997V332.881Z" fill="white"/>
<path opacity="0.22" d="M14.8015 332.881H9.61993V338.055H14.8015V332.881Z" fill="white"/>
<path opacity="0.32" d="M21.8831 332.881H16.7014V338.055H21.8831V332.881Z" fill="white"/>
<path opacity="0.18" d="M0.638458 339.952H-4.54321V345.125H0.638458V339.952Z" fill="white"/>
<path opacity="0.28" d="M7.71997 339.952H2.53833V345.125H7.71997V339.952Z" fill="white"/>
<path opacity="0.2" d="M21.8831 339.952H16.7014V345.125H21.8831V339.952Z" fill="white"/>
<path opacity="0.33" d="M0.638458 347.022H-4.54321V352.195H0.638458V347.022Z" fill="white"/>
<path opacity="0.05" d="M7.71997 347.022H2.53833V352.195H7.71997V347.022Z" fill="white"/>
<path opacity="0.08" d="M14.8015 347.022H9.61993V352.195H14.8015V347.022Z" fill="white"/>
<path opacity="0.08" d="M7.71997 354.092H2.53833V359.265H7.71997V354.092Z" fill="white"/>
<path opacity="0.02" d="M14.8015 354.092H9.61993V359.265H14.8015V354.092Z" fill="white"/>
<path opacity="0.05" d="M0.638458 361.162H-4.54321V366.336H0.638458V361.162Z" fill="white"/>
<path opacity="0.2" d="M7.71997 361.162H2.53833V366.336H7.71997V361.162Z" fill="white"/>
<path opacity="0.23" d="M14.8015 361.162H9.61993V366.336H14.8015V361.162Z" fill="white"/>
<path opacity="0.14" d="M0.638458 368.233H-4.54321V373.406H0.638458V368.233Z" fill="white"/>
<path opacity="0.24" d="M14.8015 368.233H9.61993V373.406H14.8015V368.233Z" fill="white"/>
<path opacity="0.23" d="M0.638458 375.303H-4.54321V380.476H0.638458V375.303Z" fill="white"/>
<path opacity="0.02" d="M7.71997 375.303H2.53833V380.476H7.71997V375.303Z" fill="white"/>
<path opacity="0.04" d="M14.8015 375.303H9.61993V380.476H14.8015V375.303Z" fill="white"/>
<path opacity="0.3" d="M21.8831 375.303H16.7014V380.476H21.8831V375.303Z" fill="white"/>
<path opacity="0.4" d="M21.8831 382.2H16.7014V387.374H21.8831V382.2Z" fill="white"/>
<path opacity="0.12" d="M0.638458 389.271H-4.54321V394.444H0.638458V389.271Z" fill="white"/>
<path opacity="0.19" d="M14.8015 389.271H9.61993V394.444H14.8015V389.271Z" fill="white"/>
<path opacity="0.43" d="M21.8831 389.271H16.7014V394.444H21.8831V389.271Z" fill="white"/>
<path opacity="0.42" d="M7.71997 396.341H2.53833V401.514H7.71997V396.341Z" fill="white"/>
<path opacity="0.31" d="M21.8831 396.341H16.7014V401.514H21.8831V396.341Z" fill="white"/>
<path opacity="0.31" d="M7.71997 403.411H2.53833V408.585H7.71997V403.411Z" fill="white"/>
<path opacity="0.33" d="M21.8831 403.411H16.7014V408.585H21.8831V403.411Z" fill="white"/>
<path opacity="0.17" d="M7.71997 410.481H2.53833V415.655H7.71997V410.481Z" fill="white"/>
<path opacity="0.01" d="M14.8015 410.481H9.61993V415.655H14.8015V410.481Z" fill="white"/>
<path opacity="0.48" d="M21.8831 410.481H16.7014V415.655H21.8831V410.481Z" fill="white"/>
<path opacity="0.28" d="M0.638458 417.551H-4.54321V422.725H0.638458V417.551Z" fill="white"/>
<path opacity="0.02" d="M7.71997 417.551H2.53833V422.725H7.71997V417.551Z" fill="white"/>
<path opacity="0.17" d="M14.8015 417.551H9.61993V422.725H14.8015V417.551Z" fill="white"/>
<path opacity="0.42" d="M21.8831 417.551H16.7014V422.725H21.8831V417.551Z" fill="white"/>
<path opacity="0.11" d="M0.638458 424.622H-4.54321V429.795H0.638458V424.622Z" fill="white"/>
<path opacity="0.02" d="M7.71997 424.622H2.53833V429.795H7.71997V424.622Z" fill="white"/>
<path opacity="0.3" d="M21.8831 424.622H16.7014V429.795H21.8831V424.622Z" fill="white"/>
<path opacity="0.19" d="M0.638458 431.692H-4.54321V436.865H0.638458V431.692Z" fill="white"/>
<path opacity="0.05" d="M7.71997 431.692H2.53833V436.865H7.71997V431.692Z" fill="white"/>
<path opacity="0.2" d="M21.8831 431.692H16.7014V436.865H21.8831V431.692Z" fill="white"/>
<path opacity="0.27" d="M7.71997 438.762H2.53833V443.936H7.71997V438.762Z" fill="white"/>
<path opacity="0.13" d="M14.8015 438.762H9.61993V443.936H14.8015V438.762Z" fill="white"/>
<path opacity="0.46" d="M0.638458 445.832H-4.54321V451.006H0.638458V445.832Z" fill="white"/>
<path opacity="0.12" d="M7.71997 445.832H2.53833V451.006H7.71997V445.832Z" fill="white"/>
<path opacity="0.04" d="M14.8015 445.832H9.61993V451.006H14.8015V445.832Z" fill="white"/>
<path opacity="0.3" d="M21.8831 445.832H16.7014V451.006H21.8831V445.832Z" fill="white"/>
<path opacity="0.08" d="M14.8015 325.811H9.61993V330.984H14.8015V325.811Z" fill="white"/>
<path opacity="0.08" d="M14.8015 339.952H9.61993V345.125H14.8015V339.952Z" fill="white"/>
<path opacity="0.01" d="M21.8831 347.022H16.7014V352.195H21.8831V347.022Z" fill="white"/>
<path opacity="0.15" d="M0.638458 354.092H-4.54321V359.265H0.638458V354.092Z" fill="white"/>
<path opacity="0.12" d="M21.8831 354.092H16.7014V359.265H21.8831V354.092Z" fill="white"/>
<path opacity="0.13" d="M7.71997 368.233H2.53833V373.406H7.71997V368.233Z" fill="white"/>
<path opacity="0.07" d="M21.8831 368.233H16.7014V373.406H21.8831V368.233Z" fill="white"/>
<path opacity="0.02" d="M0.638458 382.2H-4.54321V387.374H0.638458V382.2Z" fill="white"/>
<path opacity="0.02" d="M7.71997 382.2H2.53833V387.374H7.71997V382.2Z" fill="white"/>
<path opacity="0.14" d="M14.8015 382.2H9.61993V387.374H14.8015V382.2Z" fill="white"/>
<path opacity="0.09" d="M0.638458 396.341H-4.54321V401.514H0.638458V396.341Z" fill="white"/>
<path opacity="0.02" d="M14.8015 396.341H9.61993V401.514H14.8015V396.341Z" fill="white"/>
<path opacity="0.19" d="M0.638458 403.411H-4.54321V408.585H0.638458V403.411Z" fill="white"/>
<path opacity="0.06" d="M14.8015 403.411H9.61993V408.585H14.8015V403.411Z" fill="white"/>
<path opacity="0.16" d="M0.638458 410.481H-4.54321V415.655H0.638458V410.481Z" fill="white"/>
<path opacity="0.04" d="M14.8015 424.622H9.61993V429.795H14.8015V424.622Z" fill="white"/>
<path opacity="0.04" d="M14.8015 431.692H9.61993V436.865H14.8015V431.692Z" fill="white"/>
<path opacity="0.18" d="M21.8831 438.762H16.7014V443.936H21.8831V438.762Z" fill="white"/>
<g opacity="0.7">
<path opacity="0.7" d="M36.2188 322.879H30.8645V449.971H36.2188V322.879Z" fill="#E6E6E6"/>
<path opacity="0.7" d="M45.373 322.879H40.0187V449.971H45.373V322.879Z" fill="#E6E6E6"/>
<path opacity="0.7" d="M54.6999 322.879H49.3456V449.971H54.6999V322.879Z" fill="#E6E6E6"/>
<path opacity="0.7" d="M64.0268 322.879H58.6725V449.971H64.0268V322.879Z" fill="#E6E6E6"/>
<path opacity="0.7" d="M73.3537 322.879H67.9994V449.971H73.3537V322.879Z" fill="#E6E6E6"/>
</g>
<path d="M108.416 449.971H0.983887L108.416 356.506V449.971Z" fill="#333333"/>
<path d="M99.2618 433.417H62.2997V454.11H99.2618V433.417Z" fill="#4D4D4D"/>
<path d="M96.4983 428.588H65.0632V438.245H96.4983V428.588Z" fill="#4D4D4D"/>
<path d="M92.8712 431.52H68.5176L76.9809 417.379H84.4078L92.8712 431.52Z" fill="#4D4D4D"/>
<path d="M89.4168 437.555H72.1448V450.144H89.4168V437.555Z" fill="white"/>
<path d="M91.4893 442.556H70.072V445.143H91.4893V442.556Z" fill="#4D4D4D"/>
<path d="M264.21 467.388C264.728 480.839 254.365 492.392 240.72 492.91C227.248 493.427 215.675 482.908 215.157 469.457C214.639 456.007 225.002 444.453 238.647 443.936C252.119 443.418 263.519 453.937 264.21 467.388Z" fill="#333333"/>
<path d="M260.064 460.662C260.41 468.422 254.365 474.975 246.592 475.32C238.82 475.665 232.257 469.63 231.911 461.87C231.566 454.11 237.611 447.557 245.383 447.212C253.156 446.867 259.719 452.902 260.064 460.662Z" fill="#4D4D4D"/>
<path d="M17.5651 442.039C17.5651 445.315 14.8015 448.074 11.5198 448.074C8.23814 448.074 5.47461 445.315 5.47461 442.039C5.47461 438.762 8.23814 436.003 11.5198 436.003C14.8015 436.003 17.5651 438.59 17.5651 442.039Z" fill="#333333"/>
<path d="M19.6377 448.074C19.6377 452.558 16.0106 456.179 11.5198 456.179C7.02912 456.179 3.40198 452.558 3.40198 448.074C3.40198 443.591 7.02912 439.969 11.5198 439.969C16.0106 439.969 19.6377 443.591 19.6377 448.074Z" fill="#333333"/>
<path d="M15.4924 436.865C15.4924 439.107 13.7652 441.004 11.5199 441.004C9.27451 441.004 7.5473 439.107 7.5473 436.865C7.5473 434.624 9.27451 432.727 11.5199 432.727C13.7652 432.727 15.4924 434.624 15.4924 436.865Z" fill="#333333"/>
<path d="M16.7014 442.039C16.7014 443.936 15.147 445.488 13.2471 445.488C11.3471 445.488 9.79266 443.936 9.79266 442.039C9.79266 440.142 11.3471 438.59 13.2471 438.59C15.147 438.59 16.7014 440.142 16.7014 442.039Z" fill="#4D4D4D"/>
<path d="M14.9742 437.383C14.9742 438.762 13.7652 439.969 12.3835 439.969C11.0017 439.969 9.79266 438.762 9.79266 437.383C9.79266 436.003 11.0017 434.796 12.3835 434.796C13.7652 434.624 14.9742 435.831 14.9742 437.383Z" fill="#4D4D4D"/>
<path d="M132.77 454.627C132.77 458.938 129.142 462.56 124.824 462.56C120.506 462.56 116.879 458.938 116.879 454.627C116.879 450.316 120.334 446.694 124.824 446.694C129.142 446.694 132.77 450.316 132.77 454.627Z" fill="#333333"/>
<path d="M130.006 447.902C130.006 450.833 127.761 453.248 124.824 453.248C121.888 453.248 119.643 450.833 119.643 447.902C119.643 444.97 121.888 442.556 124.824 442.556C127.588 442.556 130.006 444.97 130.006 447.902Z" fill="#333333"/>
<path d="M129.315 448.419C129.315 450.316 127.761 451.868 125.861 451.868C123.961 451.868 122.406 450.316 122.406 448.419C122.406 446.522 123.961 444.97 125.861 444.97C127.761 444.97 129.315 446.522 129.315 448.419Z" fill="#4D4D4D"/>
<path d="M122.061 460.49C121.197 468.768 113.77 474.631 105.653 473.769C97.3619 472.906 91.4894 465.491 92.353 457.386C93.2166 449.109 100.644 443.246 108.761 444.108C116.879 444.97 122.925 452.213 122.061 460.49Z" fill="#333333"/>
<path d="M118.261 447.212C117.743 452.73 112.907 456.869 107.38 456.352C102.025 455.834 98.0527 450.834 98.5709 445.315C99.0891 439.797 103.925 435.658 109.452 436.176C114.979 436.693 118.779 441.694 118.261 447.212Z" fill="#333333"/>
<path d="M116.879 448.247C116.534 451.868 113.252 454.455 109.798 454.11C106.171 453.765 103.58 450.489 103.925 447.04C104.271 443.418 107.552 440.832 111.007 441.177C114.634 441.521 117.225 444.798 116.879 448.247Z" fill="#4D4D4D"/>
<path d="M200.303 453.248C200.303 460.835 194.258 466.871 186.658 466.871C179.058 466.871 173.013 460.835 173.013 453.248C173.013 445.66 179.058 439.625 186.658 439.625C194.085 439.625 200.303 445.66 200.303 453.248Z" fill="#333333"/>
<path d="M204.967 466.87C204.967 477.045 196.676 485.15 186.658 485.15C176.468 485.15 168.35 476.872 168.35 466.87C168.35 456.696 176.64 448.591 186.658 448.591C196.676 448.591 204.967 456.869 204.967 466.87Z" fill="#333333"/>
<path d="M195.467 441.521C195.467 446.695 191.494 450.833 186.486 450.833C181.477 450.833 177.504 446.695 177.504 441.521C177.504 436.348 181.477 432.209 186.486 432.209C191.494 432.382 195.467 436.52 195.467 441.521Z" fill="#333333"/>
<path d="M198.231 453.248C198.231 457.559 194.776 461.18 190.285 461.18C185.967 461.18 182.34 457.731 182.34 453.248C182.34 448.937 185.795 445.315 190.285 445.315C194.603 445.488 198.231 448.937 198.231 453.248Z" fill="#4D4D4D"/>
<path d="M194.258 442.728C194.258 446.005 191.667 448.764 188.213 448.764C184.931 448.764 182.168 446.177 182.168 442.728C182.168 439.452 184.758 436.865 188.213 436.865C191.667 436.693 194.258 439.452 194.258 442.728Z" fill="#4D4D4D"/>
<path d="M170.077 464.629C170.077 474.286 162.132 482.218 152.46 482.218C142.787 482.218 134.842 474.286 134.842 464.629C134.842 454.972 142.787 447.039 152.46 447.039C162.132 447.039 170.077 454.799 170.077 464.629Z" fill="#333333"/>
<path d="M164.032 449.454C164.032 456.006 158.85 461.352 152.46 461.352C146.069 461.352 140.887 456.006 140.887 449.454C140.887 442.901 146.069 437.555 152.46 437.555C158.85 437.555 164.032 442.901 164.032 449.454Z" fill="#333333"/>
<path d="M162.477 451.006C162.477 455.317 159.023 458.593 154.705 458.593C150.387 458.593 146.932 455.144 146.932 451.006C146.932 446.695 150.387 443.246 154.705 443.246C159.023 443.246 162.477 446.695 162.477 451.006Z" fill="#4D4D4D"/>
<path d="M212.739 451.523C212.739 453.592 211.185 455.144 209.285 455.144C207.385 455.144 205.83 453.592 205.83 451.523C205.83 449.454 207.385 447.902 209.285 447.902C211.185 447.902 212.739 449.454 212.739 451.523Z" fill="#333333"/>
<path d="M287.009 447.212C287.009 453.937 281.654 459.283 274.918 459.283C268.182 459.283 262.828 453.937 262.828 447.212C262.828 440.487 268.182 435.141 274.918 435.141C281.654 435.141 287.009 440.487 287.009 447.212Z" fill="#333333"/>
<path d="M291.154 459.283C291.154 468.251 283.9 475.493 274.918 475.493C265.937 475.493 258.683 468.251 258.683 459.283C258.683 450.316 265.937 443.074 274.918 443.074C283.9 443.074 291.154 450.316 291.154 459.283Z" fill="#333333"/>
<path d="M282.864 436.866C282.864 441.349 279.236 445.143 274.918 445.143C270.6 445.143 266.973 441.522 266.973 436.866C266.973 432.382 270.6 428.588 274.918 428.588C279.236 428.588 282.864 432.382 282.864 436.866Z" fill="#333333"/>
<path d="M285.109 447.212C285.109 451.006 282 454.11 278.2 454.11C274.4 454.11 271.291 451.006 271.291 447.212C271.291 443.418 274.4 440.314 278.2 440.314C282 440.314 285.109 443.418 285.109 447.212Z" fill="#4D4D4D"/>
<path d="M281.827 437.9C281.827 440.832 279.409 443.246 276.473 443.246C273.537 443.246 271.119 440.832 271.119 437.9C271.119 434.969 273.537 432.555 276.473 432.555C279.409 432.555 281.827 434.969 281.827 437.9Z" fill="#4D4D4D"/>
<path d="M332.089 462.387C332.089 471.354 324.835 478.597 315.853 478.597C306.872 478.597 299.617 471.354 299.617 462.387C299.617 453.42 306.872 446.177 315.853 446.177C324.835 446.35 332.089 453.593 332.089 462.387Z" fill="#333333"/>
<path d="M326.389 448.592C326.389 454.627 321.553 459.628 315.853 459.628C309.98 459.628 305.144 454.8 305.144 448.592C305.144 442.556 309.98 437.728 315.853 437.728C321.725 437.728 326.389 442.556 326.389 448.592Z" fill="#333333"/>
<path d="M325.007 449.971C325.007 453.938 321.898 457.042 317.926 457.042C313.953 457.042 310.844 453.938 310.844 449.971C310.844 446.005 313.953 442.901 317.926 442.901C321.898 442.901 325.007 446.005 325.007 449.971Z" fill="#4D4D4D"/>
<path d="M596.351 468.94C596.351 483.77 584.433 495.669 569.579 495.669C554.725 495.669 542.807 483.77 542.807 468.94C542.807 454.11 554.725 442.211 569.579 442.211C584.433 442.211 596.351 454.282 596.351 468.94Z" fill="#333333"/>
<path d="M592.378 461.525C592.378 469.975 585.469 476.873 577.006 476.873C568.543 476.873 561.634 469.975 561.634 461.525C561.634 453.075 568.543 446.178 577.006 446.178C585.469 446.178 592.378 453.075 592.378 461.525Z" fill="#4D4D4D"/>
<path d="M630.722 457.386C630.722 469.802 620.532 479.977 608.096 479.977C595.66 479.977 585.469 469.802 585.469 457.386C585.469 444.97 595.66 434.796 608.096 434.796C620.704 434.796 630.722 444.798 630.722 457.386Z" fill="#333333"/>
<path d="M627.268 451.006C627.268 458.249 621.395 463.939 614.314 463.939C607.059 463.939 601.36 458.076 601.36 451.006C601.36 443.936 607.232 438.073 614.314 438.073C621.395 438.073 627.268 443.936 627.268 451.006Z" fill="#4D4D4D"/>
<path d="M573.034 461.008C573.034 473.424 562.843 483.598 550.407 483.598C537.971 483.598 527.781 473.424 527.781 461.008C527.781 448.592 537.971 438.417 550.407 438.417C563.016 438.417 573.034 448.419 573.034 461.008Z" fill="#333333"/>
<path d="M569.579 454.627C569.579 461.87 563.707 467.56 556.625 467.56C549.544 467.56 543.671 461.697 543.671 454.627C543.671 447.385 549.544 441.694 556.625 441.694C563.707 441.694 569.579 447.385 569.579 454.627Z" fill="#4D4D4D"/>
<path d="M503.255 466.181C503.255 478.597 493.064 488.771 480.628 488.771C468.192 488.771 458.002 478.597 458.002 466.181C458.002 453.765 468.192 443.591 480.628 443.591C493.237 443.591 503.255 453.765 503.255 466.181Z" fill="#333333"/>
<path d="M499.8 459.801C499.8 467.044 493.928 472.734 486.846 472.734C479.592 472.734 473.892 466.871 473.892 459.801C473.892 452.558 479.765 446.868 486.846 446.868C493.928 446.868 499.8 452.731 499.8 459.801Z" fill="#4D4D4D"/>
<path d="M475.965 462.387C475.965 474.803 465.774 484.978 453.338 484.978C440.902 484.978 430.712 474.803 430.712 462.387C430.712 449.971 440.902 439.797 453.338 439.797C465.774 439.797 475.965 449.799 475.965 462.387Z" fill="#333333"/>
<path d="M472.51 456.007C472.51 463.25 466.638 468.94 459.556 468.94C452.302 468.94 446.602 463.077 446.602 456.007C446.602 448.764 452.475 443.074 459.556 443.074C466.638 443.074 472.51 448.764 472.51 456.007Z" fill="#4D4D4D"/>
<path d="M493.582 458.766C493.582 466.008 487.71 471.699 480.628 471.699C473.374 471.699 467.674 465.836 467.674 458.766C467.674 451.523 473.547 445.832 480.628 445.832C487.882 445.832 493.582 451.695 493.582 458.766Z" fill="#4D4D4D"/>
<path d="M397.032 459.8C397.032 467.905 390.468 474.63 382.178 474.63C374.06 474.63 367.324 468.078 367.324 459.8C367.324 451.695 373.887 444.97 382.178 444.97C390.468 445.142 397.032 451.695 397.032 459.8Z" fill="#333333"/>
<path d="M394.786 455.662C394.786 460.318 390.986 464.111 386.323 464.111C381.66 464.111 377.86 460.318 377.86 455.662C377.86 451.006 381.66 447.212 386.323 447.212C390.986 447.212 394.786 451.006 394.786 455.662Z" fill="#4D4D4D"/>
<path d="M8.92905 448.074C8.92905 454.972 3.40198 460.49 -3.50683 460.49C-10.4156 460.49 -15.9427 454.972 -15.9427 448.074C-15.9427 441.176 -10.4156 435.658 -3.50683 435.658C3.22926 435.486 8.92905 441.176 8.92905 448.074Z" fill="#333333"/>
<path d="M13.0743 460.49C13.0743 469.802 5.64736 477.217 -3.67952 477.217C-13.0064 477.217 -20.4333 469.802 -20.4333 460.49C-20.4333 451.178 -13.0064 443.763 -3.67952 443.763C5.64736 443.763 13.0743 451.178 13.0743 460.49Z" fill="#333333"/>
<path d="M4.61105 437.383C4.61105 442.039 0.983925 445.832 -3.67952 445.832C-8.17024 445.832 -11.9701 442.039 -11.9701 437.383C-11.9701 432.727 -8.34296 428.933 -3.67952 428.933C0.983925 428.933 4.61105 432.727 4.61105 437.383Z" fill="#333333"/>
<path d="M7.02902 448.074C7.02902 452.04 3.74734 455.317 -0.225235 455.317C-4.19781 455.317 -7.47949 452.04 -7.47949 448.074C-7.47949 444.108 -4.19781 440.831 -0.225235 440.831C3.74734 440.831 7.02902 444.108 7.02902 448.074Z" fill="#4D4D4D"/>
<path d="M3.57465 438.417C3.57465 441.349 1.15656 443.936 -1.95242 443.936C-4.88868 443.936 -7.47949 441.521 -7.47949 438.417C-7.47949 435.486 -5.0614 432.899 -1.95242 432.899C0.983835 432.899 3.57465 435.313 3.57465 438.417Z" fill="#4D4D4D"/>
<path d="M67.8267 452.903C67.8267 458.421 63.336 462.905 57.8089 462.905C52.2818 462.905 47.7911 458.421 47.7911 452.903C47.7911 447.385 52.2818 442.901 57.8089 442.901C63.336 442.901 67.8267 447.385 67.8267 452.903Z" fill="#333333"/>
<path d="M64.3723 444.281C64.3723 448.075 61.436 451.179 57.8089 451.179C54.1817 451.179 51.2455 448.075 51.2455 444.281C51.2455 440.487 54.1817 437.383 57.8089 437.383C61.436 437.556 64.3723 440.487 64.3723 444.281Z" fill="#333333"/>
<path d="M66.2722 452.903C66.2722 456.179 63.6814 458.766 60.3997 458.766C57.118 458.766 54.5272 456.179 54.5272 452.903C54.5272 449.799 57.118 447.212 60.3997 447.212C63.6814 447.04 66.2722 449.627 66.2722 452.903Z" fill="#4D4D4D"/>
<path d="M63.5087 445.143C63.5087 447.557 61.6088 449.454 59.1907 449.454C56.7726 449.454 54.8727 447.557 54.8727 445.143C54.8727 442.729 56.7726 440.832 59.1907 440.832C61.6088 440.659 63.5087 442.729 63.5087 445.143Z" fill="#4D4D4D"/>
</svg>
